<?xml version="1.0" standalone="no"?>
<!DOCTYPE svg PUBLIC "-//W3C//DTD SVG 20010904//EN"
 "http://www.w3.org/TR/2001/REC-SVG-20010904/DTD/svg10.dtd">
<svg version="1.0" xmlns="http://www.w3.org/2000/svg"
 width="600.000000pt" height="395.000000pt" viewBox="0 0 600.000000 395.000000"
 preserveAspectRatio="xMidYMid meet">
<g transform="translate(0.000000,395.000000) scale(0.100000,-0.100000)"
fill="#000000" stroke="none">
<path d="M0 1975 l0 -1975 3000 0 3000 0 0 1975 0 1975 -3000 0 -3000 0 0
-1975z m4898 953 c2 -601 3 -638 20 -647 10 -5 146 -10 320 -10 166 0 306 -2
312 -6 6 -4 10 -119 10 -326 l0 -319 -314 0 c-279 0 -315 -2 -327 -17 -11 -13
-15 -83 -17 -335 l-3 -318 -120 0 -119 0 0 -309 c0 -272 -2 -310 -16 -315 -9
-3 -96 -6 -194 -6 -153 0 -179 2 -184 16 -3 9 -6 150 -6 315 l0 299 -125 0
-125 0 -2 -312 -3 -313 -195 0 -195 0 -3 313 -2 312 -653 -2 -652 -3 -5 -310
-5 -310 -195 0 -195 0 -2 295 c-1 162 -2 303 -2 313 -1 15 -14 17 -126 17
l-125 0 -2 -313 -3 -312 -189 -3 c-145 -2 -191 1 -198 10 -4 7 -8 144 -8 303
0 160 0 295 0 302 0 9 -35 13 -122 15 l-123 3 -3 319 c-1 213 -6 324 -13 333
-9 10 -79 13 -323 15 l-311 3 -3 314 c-1 173 2 319 6 323 5 5 146 9 313 9 196
1 308 4 316 11 10 8 13 144 13 630 0 408 4 626 10 639 11 19 41 19 1948 17
l1937 -3 3 -637z"/>
<path d="M1661 2906 c-8 -9 -11 -103 -9 -322 l3 -309 110 -3 c61 -1 116 2 122
6 9 6 13 85 13 315 1 169 -2 312 -5 317 -10 16 -220 13 -234 -4z"/>
<path d="M4015 2908 c-3 -7 -4 -153 -3 -323 l3 -310 114 -3 c62 -1 118 2 125
7 8 7 10 94 6 323 l-5 313 -118 3 c-89 2 -119 -1 -122 -10z"/>
</g>
</svg>
